<svg xmlns="http://www.w3.org/2000/svg" width="149.99" height="136.73"><rect id="backgroundrect" width="100%" height="100%" x="0" y="0" fill="none" stroke="none"/>
  
<g class="currentLayer" style=""><title>Layer 1</title><path fill="#CB9D47" d="M128.90370465517043,0.3740735530853243 C142.80370465517043,1.8740735530853243 154.80370465517043,14.474073553085326 149.60370465517045,26.074073553085327 C144.40370465517043,37.77407355308533 121.90370465517043,48.47407355308533 115.80370465517043,63.67407355308532 C109.70370465517044,78.77407355308533 119.90370465517043,98.47407355308533 117.30370465517043,114.07407355308533 C114.70370465517044,129.77407355308532 99.20370465517044,141.47407355308533 88.20370465517044,135.27407355308532 C77.20370465517044,129.07407355308533 70.70370465517044,104.97407355308533 55.103704655170446,93.57407355308533 C39.50370465517044,82.07407355308533 14.803704655170435,83.27407355308532 5.4037046551704435,74.67407355308532 C-3.8962953448295536,66.17407355308532 2.003704655170438,47.77407355308533 14.403704655170444,38.37407355308533 C26.803704655170442,28.874073553085324 45.60370465517044,28.17407355308532 58.20370465517044,26.374073553085324 C70.90370465517044,24.474073553085333 77.30370465517043,21.474073553085333 88.30370465517043,15.074073553085327 C99.40370465517044,8.674073553085329 115.10370465517045,-1.0259264469146743 128.90370465517043,0.3740735530853243 z" id="svg_1" class="selected" opacity="0.67"/></g></svg>